<svg xmlns="http://www.w3.org/2000/svg" aria-hidden="true" style="position:absolute;width:0;height:0;overflow:hidden">
  <defs>
    <symbol id="icon-burger-1" viewBox="0 0 32 32">
      <path
        d="M4.799 8.001a1.6 1.6 0 0 1 1.6-1.6h19.2a1.6 1.6 0 0 1 0 3.2h-19.2a1.6 1.6 0 0 1-1.6-1.6zm0 8a1.6 1.6 0 0 1 1.6-1.6h19.2a1.6 1.6 0 0 1 0 3.2h-19.2a1.6 1.6 0 0 1-1.6-1.6zm0 8a1.6 1.6 0 0 1 1.6-1.6h19.2a1.6 1.6 0 0 1 0 3.2h-19.2a1.6 1.6 0 0 1-1.6-1.6z"/>
    </symbol>
    <symbol id="icon-burger-2" viewBox="0 0 32 32">
      <path d="M.021 27.497v-3.943h32v3.943h-32zm0-9.547v-3.902h32v3.902h-32zm0-9.504V4.503h32v3.943h-32z"/>
    </symbol>
    <symbol id="icon-burger-3" viewBox="0 0 32 32">
      <path d="M0 3.429h32v6.857H0zm0 9.142h32v6.857H0zm0 9.143h32v6.857H0z"/>
    </symbol>
    <symbol id="icon-close" viewBox="0 0 32 32">
      <path
        d="M32 3.223 28.777 0 16 12.777 3.223 0 0 3.223 12.777 16 0 28.777 3.223 32 16 19.223 28.777 32 32 28.777 19.223 16 32 3.223z"/>
    </symbol>
    <symbol id="icon-viber" viewBox="0 0 32 32">
      <path
        d="M15.197.003C12.63.038 7.108.459 4.018 3.29 1.725 5.57.923 8.931.83 13.094.75 17.241.657 25.027 8.163 27.149v3.227s-.051 1.293.803 1.56c1.053.333 1.653-.665 2.653-1.732l1.867-2.107c5.133.427 9.067-.559 9.52-.705 1.04-.333 6.908-1.081 7.868-8.869.987-8.041-.48-13.108-3.12-15.401l-.013-.003c-.8-.733-4-3.067-11.16-3.093 0 0-.528-.033-1.384-.021zm.09 2.262c.727-.004 1.173.027 1.173.027 6.053.013 8.948 1.84 9.628 2.453 2.227 1.905 3.371 6.475 2.533 13.189-.8 6.507-5.56 6.92-6.44 7.2-.373.12-3.84.973-8.203.693 0 0-3.252 3.921-4.265 4.935-.16.173-.347.227-.467.2-.173-.04-.227-.253-.213-.547l.027-5.359c-6.361-1.76-5.988-8.403-5.921-11.869.08-3.467.733-6.309 2.667-8.229 2.609-2.36 7.3-2.68 9.481-2.693zm.48 3.467h-.001a.4.4 0 0 0 .001.799l.143-.001c2.034 0 3.88.809 5.232 2.123l-.002-.002c1.453 1.413 2.161 3.307 2.188 5.787a.4.4 0 0 0 .4.4v-.012a.4.4 0 0 0 .4-.4 8.575 8.575 0 0 0-2.415-6.349l.002.002c-1.587-1.547-3.589-2.347-5.948-2.347zm-5.272.92a1.263 1.263 0 0 0-.826.163l.006-.003h-.016c-.547.32-1.051.72-1.531 1.253-.36.427-.561.852-.615 1.265a1.634 1.634 0 0 0 .07.733l-.003-.012.027.013a18.197 18.197 0 0 0 1.646 3.549l-.046-.082a20.684 20.684 0 0 0 3.101 4.237l-.008-.009.04.053.053.04.08.08a20.864 20.864 0 0 0 4.136 3.053l.104.054c1.76.96 2.829 1.413 3.469 1.6v.013c.187.053.357.08.531.08a2.447 2.447 0 0 0 1.471-.631l-.002.002a6.03 6.03 0 0 0 1.24-1.531v-.013c.307-.573.2-1.121-.24-1.495a18.139 18.139 0 0 0-2.781-2.007l-.085-.046c-.68-.373-1.373-.147-1.653.227l-.6.759c-.307.373-.867.32-.867.32l-.016.013c-4.16-1.067-5.267-5.279-5.267-5.279s-.053-.573.333-.867l.747-.6c.36-.293.613-.987.227-1.667a18.073 18.073 0 0 0-2.071-2.887l.017.02a1.127 1.127 0 0 0-.665-.399l-.007-.001zm5.964 1.187a.401.401 0 0 0 .001.8h.001a5.027 5.027 0 0 1 3.532 1.532l.001.001a4.646 4.646 0 0 1 1.199 3.44l.001-.014c.001.22.18.399.4.399l.013.016a.4.4 0 0 0 .4-.4v-.001c.04-1.587-.453-2.92-1.427-3.987s-2.333-1.667-4.067-1.787l-.028-.001-.029.001h.001zm.653 2.158H17.1a.407.407 0 0 0-.012.815h.001c1.32.067 1.96.733 2.04 2.107a.4.4 0 0 0 .4.387h.013a.4.4 0 0 0 .388-.4l-.001-.028v.001c-.093-1.787-1.067-2.788-2.8-2.881h-.016z"/>
    </symbol>
    <symbol id="icon-whatsapp" viewBox="0 0 32 32">
      <path
        d="M27.281 4.65C24.287 1.65 20.306 0 16.062 0 7.324 0 .212 7.112.212 15.856c0 2.794.731 5.525 2.119 7.925L.081 32l8.406-2.206a15.858 15.858 0 0 0 7.575 1.931h.006c8.738 0 15.856-7.113 15.856-15.856 0-4.238-1.65-8.219-4.644-11.219zm-11.212 24.4a13.17 13.17 0 0 1-6.713-1.837l-.481-.288-4.987 1.306 1.331-4.863-.313-.5a13.086 13.086 0 0 1-2.019-7.012c0-7.269 5.912-13.181 13.188-13.181 3.519 0 6.831 1.375 9.319 3.862a13.108 13.108 0 0 1 3.856 9.325c-.006 7.275-5.919 13.188-13.181 13.188zm7.225-9.875c-.394-.2-2.344-1.156-2.706-1.288s-.625-.2-.894.2c-.262.394-1.025 1.288-1.256 1.556-.231.262-.462.3-.856.1s-1.675-.619-3.188-1.969c-1.175-1.05-1.975-2.35-2.206-2.744s-.025-.613.175-.806c.181-.175.394-.463.594-.694s.262-.394.394-.662c.131-.262.069-.494-.031-.694s-.894-2.15-1.219-2.944c-.319-.775-.65-.669-.894-.681-.231-.012-.494-.012-.756-.012s-.694.1-1.056.494c-.363.394-1.387 1.356-1.387 3.306s1.419 3.831 1.619 4.1c.2.262 2.794 4.269 6.769 5.981.944.406 1.681.65 2.256.837.95.3 1.813.256 2.494.156.762-.113 2.344-.956 2.675-1.881s.331-1.719.231-1.881c-.094-.175-.356-.275-.756-.475z"/>
    </symbol>
    <symbol id="icon-mail" viewBox="0 0 32 32">
      <path
        d="M29 4H3a3 3 0 0 0-3 3v18a3 3 0 0 0 3 3h26a3 3 0 0 0 3-3V7a3 3 0 0 0-3-3zM2.741 25.99l-.731-.732 8.249-8.248.731.732-8.249 8.248zm26.518 0-8.249-8.248.731-.732 8.249 8.248-.731.732zM17 19.325V20h-2v-.675L2.003 7.275l1.272-1.272L16 17.801 28.725 6.003l1.272 1.272L17 19.325z"/>
    </symbol>
    <symbol id="icon-search" viewBox="0 0 32 32">
      <path
        d="M19.427 20.427a8.5 8.5 0 1 1 2-2l5.585 5.585c.55.55.546 1.431 0 1.976l-.023.023a1.398 1.398 0 0 1-1.976 0l-5.585-5.585zM14.5 20a6.5 6.5 0 1 0 0-13 6.5 6.5 0 0 0 0 13z"/>
    </symbol>
    <symbol id="icon-search1" viewBox="0 0 32 32">
      <path
        d="m31.008 27.231-7.58-6.447c-.784-.705-1.622-1.029-2.299-.998a11.954 11.954 0 0 0 2.87-7.787c0-6.627-5.373-12-12-12s-12 5.373-12 12 5.373 12 12 12c2.972 0 5.691-1.081 7.787-2.87-.031.677.293 1.515.998 2.299l6.447 7.58c1.104 1.226 2.907 1.33 4.007.23s.997-2.903-.23-4.007zM12 20a8 8 0 1 1 0-16 8 8 0 0 1 0 16z"/>
    </symbol>
  </defs>
</svg>